<svg xmlns="http://www.w3.org/2000/svg" version="1.1" xmlns:xlink="http://www.w3.org/1999/xlink" xmlns:svgjs="http://svgjs.dev/svgjs" width="2000" height="1500" viewBox="0 0 2000 1500"><rect width="2000" height="1500" fill="#4d1d3b"></rect><g transform="matrix(0.4444444444444444,0,0,0.4444444444444444,555.5556208333335,250)"><svg viewBox="0 0 320 360" data-background-color="#4d1d3b" preserveAspectRatio="xMidYMid meet" height="2250" width="2000" xmlns="http://www.w3.org/2000/svg" xmlns:xlink="http://www.w3.org/1999/xlink"><g id="tight-bounds" transform="matrix(1,0,0,1,0.000023499999997511622,0)"><svg viewBox="0 0 320 360" height="360" width="320"><g><svg></svg></g><g><svg viewBox="0 0 320 360" height="360" width="320"><g><path transform="translate(-74.99272,-51.79039) scale(4.65793,4.65793)" d="M20.6 59.9l0.8 1-0.4-1.3c-0.1-0.6-0.8 0.1-0.4 0.3M21.5 59.3c0.3 0.5 0.6 1 0.6 1.5 0 0.7 0.6 1 1.1 1.2-0.7-0.8-1.1-3-1.7-2.7M59.9 16.9c1.7 0 3.3-0.2 5.1 0.2 4.4 1.1 8.1 3.3 10.6 6.4l7 11.2c0.3 2.8 0.9 5.9 0.8 9.3 0.7 0 0.6-1 1.4-1.2-0.8 2-1.2 4.5-1.4 7.4-0.5-1.6 0-4 0.1-5.3-0.7 1.1-1.1 0.3-1.1-0.2 0.1-0.8-0.3-0.7-0.6-1-1.1-1-1.8-2.1-2.6-3.8 0.5-1.3 0.6-3.2-1-4.2-0.5-0.3-1.1-0.8-1.4-1.6-0.4-1.1-1.1-2.4-0.9-4.1 0.1-0.5-1.5 1.1-2.4 0.4-3.9-2.7-7.8-5.8-12.5-8.4-2.5 0-4.3-0.9-5.2-2-0.8-1-0.2-2.3 1-2.4 0.7 0 1.5-0.2 2.1 0.2 0.1-0.4 0.5-0.9 1-0.9M50 14.6l0.2 0.1c1 0.2 1.5 1.6 2.6 1.1 0 0.7 0.1 1.4-0.1 1.9-0.3 0.8-1.2 0.8-1.9 0.8-6.7-0.4-10.6 2.4-14.7 4.8-1.1 0.7-2.3 1.2-3.2 2.1-4.3 4-9 7.7-10.1 15.1l-0.9 8.2c-0.1 0.9-1.1 1.8-0.9 2.9l0.7 4.9c-0.7-0.7-1.1 0.2-0.9 0.6 0.1 0.3 0.5 1.3 1.1 0.4 0.8 1.5 1.6 4.4 2.7 5.7 3.4 4 7.8 7.6 11.4 11.2 0.9-0.2 1.6-0.2 1.8-0.8 0.3 0.6-0.3 1.2-0.8 1.3 1.6 1 3.4 1.9 5.8 2.1 3.1 0.2 6 0.7 8.7 1.4 1.4-0.4 2.8-0.6 4.3-0.7 0.5 0 0.8-0.8 1.4-1l0.1-1c0.6 0.9 0.5-0.3 0.1-0.9 0.7 0.6 0.9 1.1 1.2 1.5 0-0.3 0.8-1.4 0.8-0.1l0.2-1.3c0.3-0.2 0.4 1.1 0.7 0.2 0.3-0.9 0.9-0.2 1.5-0.5-0.2 0.4-0.1 1.2 0.6 0.7l0.8-0.7c0.5 1.2 1.3 0.7 1.7 0.5 4.4-2.8 8.8-6.1 13-9.4l-0.1 1.3 0.5-1.6c0.5 0.5 0.9 0.1 1.1-0.2 0.6-1 1.4-2 2.7-2.9-1.6 4.3-3.5 7.7-5.9 10.5l-1 1.2c0 0.7-0.2 1.6-1 1.7-0.4 0.1-1.2-0.2-1.8 0.4-0.3 0.4 0.7 1.2-0.1 0.6-0.7-0.5-1.4 0-2.2 0.2-0.6 0.2 0.4 0.8 0.6 1.2 0.2 0.4 0.4 0.8 0.3 1.3l-1.1-1.2c-1.3 0.7-2.1 2-3.2 3-0.5 0.4-0.3 1.1-0.3 1.7-0.7 0-1.5-0.2-1.9 0.2-0.3 0.4-0.2 1-0.2 1.6-1-0.1-1.1-1.6-2-1.3-0.9 0.2-1.9 0.3-2.7 0.8 0.6 1.2-1 0.5-0.8 0.7-1.5-0.9-2.8-1.6-4.4-1-3.4-1.1-7.6-0.6-10.7-0.2 0-0.5 0.1-1-0.1-1.1-0.2 0.5-0.8 0.3-0.7 0.3-1.9-1.3-3.8-2.1-5.8-3.2-1.8 0.2-3.5-0.7-4-1.2-1.4-1.3-3-0.6-4.3-0.9-2.8-0.7-3.8-3.6-4.1-5.6-0.2-1-1-1.4-1.3-1.3-1.3-4.2-3.3-8-4.9-11.9-0.4-1-0.3-2-0.3-3.1 0.5 0.2 1 0.1 0.9-0.6-0.5-3.3-1.7-5.8-3-8.2 0.7-3.4 0.8-7.4 2.4-10.4 1.4-2.7 4-4.1 5.8-6.4 0.6-0.8 0.6-1.9 1.2-2.6 2-2 4-4.1 6.2-5.9 1-0.8 2.2 0 3.7-0.3 0.5-1.8 2.5-3.4 4.4-2.9 0.8 0.2 2.4-1.9 2.9-2.1 0.8-0.3 0.4 0.8 0.4 1.5 1.9-1.5 4.5-2.3 6.9-3.2" fill="#d5cfd8" fill-rule="nonzero" stroke="none" stroke-width="1" stroke-linecap="butt" stroke-linejoin="miter" stroke-miterlimit="10" stroke-dasharray="" stroke-dashoffset="0" font-family="none" font-weight="none" font-size="none" text-anchor="none" style="mix-blend-mode: normal" data-fill-palette-color="tertiary"></path></g><g transform="matrix(1,0,0,1,64,101.30768536732238)"><svg viewBox="0 0 192 157.38462926535524" height="157.38462926535524" width="192"><g><svg viewBox="0 0 192 157.38462926535524" height="157.38462926535524" width="192"><g><svg viewBox="0 0 219.58942344827585 180" height="157.38462926535524" width="192"><g><svg viewBox="0 0 119.48275862068965 180" height="180" width="119.48275862068965"><g id="textblocktransform"><svg viewBox="0 0 119.48275862068965 180" height="180" width="119.48275862068965" id="textblock"><g><svg viewBox="0 0 119.48275862068965 180" height="180" width="119.48275862068965"><g transform="matrix(1,0,0,1,0,0)"><svg width="119.48275862068965" viewBox="1.5 -33.9 23.1 34.8" height="180" data-palette-color="#d5cfd8"><path d="M11.85 0.9L11.85 0.9Q9.1 0.9 6.25 0.23 3.4-0.45 1.5-1.55L1.5-1.55 1.75-8.35 2.25-8.35 3.8-5.1Q4.5-3.7 5.3-2.63 6.1-1.55 7.5-0.95L7.5-0.95Q8.5-0.45 9.43-0.28 10.35-0.1 11.5-0.1L11.5-0.1Q14.55-0.1 16.32-1.75 18.1-3.4 18.1-6L18.1-6Q18.1-8.45 16.9-9.83 15.7-11.2 13.05-12.5L13.05-12.5 11-13.4Q6.7-15.3 4.28-17.78 1.85-20.25 1.85-24.35L1.85-24.35Q1.85-27.3 3.38-29.45 4.9-31.6 7.63-32.75 10.35-33.9 14-33.9L14-33.9Q16.65-33.9 19.03-33.2 21.4-32.5 23.15-31.3L23.15-31.3 22.85-25.3 22.35-25.3 20.3-29.05Q19.45-30.8 18.6-31.53 17.75-32.25 16.65-32.55L16.65-32.55Q16-32.75 15.45-32.83 14.9-32.9 14.05-32.9L14.05-32.9Q11.5-32.9 9.75-31.43 8-29.95 8-27.45L8-27.45Q8-24.9 9.35-23.38 10.7-21.85 13.3-20.65L13.3-20.65 15.6-19.65Q20.4-17.55 22.5-15.18 24.6-12.8 24.6-9.05L24.6-9.05Q24.6-4.65 21.28-1.88 17.95 0.9 11.85 0.9Z" opacity="1" transform="matrix(1,0,0,1,0,0)" fill="#d5cfd8" class="wordmark-text-0" data-fill-palette-color="primary" id="text-0"></path></svg></g></svg></g></svg></g></svg></g><g transform="matrix(1,0,0,1,145.74907862068966,60.7038044892648)"><svg viewBox="0 0 73.84034482758621 58.5923910214704" height="58.5923910214704" width="73.84034482758621"><g><svg xmlns="http://www.w3.org/2000/svg" xmlns:xlink="http://www.w3.org/1999/xlink" version="1.1" x="0" y="0" viewBox="2.3 12.100000000000001 95.40000000000002 75.70000000000002" enable-background="new 0 0 100 100" xml:space="preserve" height="58.5923910214704" width="73.84034482758621" class="icon-icon-0" data-fill-palette-color="accent" id="icon-0"><path d="M84.7 25.7c-0.5-2.2-1.3-4.4-2.4-6.5 3.2 1.2 5.8 3.5 7.4 6.5H84.7zM72.2 19.2c-3.2 1.2-5.9 3.5-7.6 6.5h5C70.2 23.4 71.1 21.2 72.2 19.2zM76.1 18.3c-1.5 2.3-2.7 4.8-3.4 7.4h9c-0.7-2.6-1.8-5.1-3.3-7.4-0.4 0-0.8-0.1-1.3-0.1C76.8 18.3 76.5 18.3 76.1 18.3zM15.4 66.2V72h61.8v-5-2.9V57c2.6 0 5.2-0.4 7.7-1.2v8.4 2.9 4.5c0 1 0.3 2 1 2.7l3.9 4.8c0.3 0.4 0.5 0.8 0.5 1.3v2.2c0 2.9-2.3 5.2-5.2 5.2H7.5c-2.9 0-5.2-2.3-5.2-5.2v-2.2c0-0.5 0.2-0.9 0.5-1.3l4-4.9c0.6-0.8 1-1.7 1-2.7v-5.7-1.7V32.6c0-4.2 3.4-7.7 7.7-7.7H54c-0.8 2.5-1.2 5.1-1.2 7.7H15.4c0 0 0 0 0 0v31.6V66.2zM38 80.3c0 1.5 1.2 2.7 2.7 2.7H52c1.5 0 2.7-1.2 2.7-2.7v-0.6H38V80.3zM68.8 32.8c0-1.4 0.1-2.8 0.3-4.2h-5.7c-0.4 1.3-0.6 2.6-0.6 4 0 1.4 0.2 2.7 0.6 3.9h5.6C68.9 35.3 68.8 34 68.8 32.8zM64.6 39.5c1.6 2.9 4.2 5.2 7.3 6.5-1.1-2.1-1.8-4.2-2.4-6.5H64.6zM71.7 32.8c0 1.3 0.1 2.5 0.3 3.8h10.3c0.2-1.4 0.3-2.7 0.3-4.1 0-1.3-0.1-2.5-0.3-3.8H72.1C71.8 30 71.7 31.4 71.7 32.8zM91.7 18.1c8 8 8 21 0 28.9-6.7 6.7-17 7.8-24.8 3.2l0 0c-3.1 2.3-6.4 2.7-8.7 2.4-0.8-0.1-0.9-1.2-0.2-1.5 2.1-1 3.4-3.1 4.2-4.8l-0.2-0.2c-7.1-8-6.8-20.3 0.9-28C70.7 10.1 83.7 10.1 91.7 18.1zM89.4 20.4c-3.3-3.3-7.6-5.1-12.2-5.1-4.6 0-8.9 1.8-12.2 5.1C61.8 23.7 60 28 60 32.6c0 4.6 1.8 8.9 5.1 12.2 3.3 3.3 7.6 5.1 12.2 5.1 4.6 0 8.9-1.8 12.2-5.1 3.3-3.3 5.1-7.6 5.1-12.2C94.5 28 92.7 23.7 89.4 20.4zM75.9 46.9c0.4 0 0.9 0.1 1.3 0.1 0.3 0 0.7 0 1 0 1.5-2.3 2.7-4.8 3.4-7.4h-9.1C73.3 42.1 74.4 44.6 75.9 46.9zM85.5 32.4c0 1.4-0.1 2.8-0.3 4.1H91c0.4-1.3 0.6-2.6 0.6-3.9 0-1.4-0.2-2.7-0.6-4h-5.7C85.4 29.9 85.5 31.1 85.5 32.4zM82.1 46.1c3.3-1.2 6-3.6 7.7-6.6h-5.1C84.1 41.8 83.2 44 82.1 46.1z" fill="#e8e8e8" data-fill-palette-color="accent"></path></svg></g></svg></g></svg></g></svg></g></svg></g></svg></g><defs></defs></svg><rect width="320" height="360" fill="none" stroke="none" visibility="hidden"></rect></g></svg></g></svg>