<svg xmlns="http://www.w3.org/2000/svg" version="1.1" xmlns:xlink="http://www.w3.org/1999/xlink" xmlns:svgjs="http://svgjs.dev/svgjs" width="2000" height="1500" viewBox="0 0 2000 1500"><rect width="2000" height="1500" fill="#4d1d3b"></rect><g transform="matrix(0.4444444444444444,0,0,0.4444444444444444,555.5556208333335,250)"><svg viewBox="0 0 320 360" data-background-color="#4d1d3b" preserveAspectRatio="xMidYMid meet" height="2250" width="2000" xmlns="http://www.w3.org/2000/svg" xmlns:xlink="http://www.w3.org/1999/xlink"><g id="tight-bounds" transform="matrix(1,0,0,1,0.000023499999997511622,0)"><svg viewBox="0 0 320 360" height="360" width="320"><g><svg></svg></g><g><svg viewBox="0 0 320 360" height="360" width="320"><g><path transform="translate(-74.99272,-51.79039) scale(4.65793,4.65793)" d="M20.6 59.9l0.8 1-0.4-1.3c-0.1-0.6-0.8 0.1-0.4 0.3M21.5 59.3c0.3 0.5 0.6 1 0.6 1.5 0 0.7 0.6 1 1.1 1.2-0.7-0.8-1.1-3-1.7-2.7M59.9 16.9c1.7 0 3.3-0.2 5.1 0.2 4.4 1.1 8.1 3.3 10.6 6.4l7 11.2c0.3 2.8 0.9 5.9 0.8 9.3 0.7 0 0.6-1 1.4-1.2-0.8 2-1.2 4.5-1.4 7.4-0.5-1.6 0-4 0.1-5.3-0.7 1.1-1.1 0.3-1.1-0.2 0.1-0.8-0.3-0.7-0.6-1-1.1-1-1.8-2.1-2.6-3.8 0.5-1.3 0.6-3.2-1-4.2-0.5-0.3-1.1-0.8-1.4-1.6-0.4-1.1-1.1-2.4-0.9-4.1 0.1-0.5-1.5 1.1-2.4 0.4-3.9-2.7-7.8-5.8-12.5-8.4-2.5 0-4.3-0.9-5.2-2-0.8-1-0.2-2.3 1-2.4 0.7 0 1.5-0.2 2.1 0.2 0.1-0.4 0.5-0.9 1-0.9M50 14.6l0.2 0.1c1 0.2 1.5 1.6 2.6 1.1 0 0.7 0.1 1.4-0.1 1.9-0.3 0.8-1.2 0.8-1.9 0.8-6.7-0.4-10.6 2.4-14.7 4.8-1.1 0.7-2.3 1.2-3.2 2.1-4.3 4-9 7.7-10.1 15.1l-0.9 8.2c-0.1 0.9-1.1 1.8-0.9 2.9l0.7 4.9c-0.7-0.7-1.1 0.2-0.9 0.6 0.1 0.3 0.5 1.3 1.1 0.4 0.8 1.5 1.6 4.4 2.7 5.7 3.4 4 7.8 7.6 11.4 11.2 0.9-0.2 1.6-0.2 1.8-0.8 0.3 0.6-0.3 1.2-0.8 1.3 1.6 1 3.4 1.9 5.8 2.1 3.1 0.2 6 0.7 8.7 1.4 1.4-0.4 2.8-0.6 4.3-0.7 0.5 0 0.8-0.8 1.4-1l0.1-1c0.6 0.9 0.5-0.3 0.1-0.9 0.7 0.6 0.9 1.1 1.2 1.5 0-0.3 0.8-1.4 0.8-0.1l0.2-1.3c0.3-0.2 0.4 1.1 0.7 0.2 0.3-0.9 0.9-0.2 1.5-0.5-0.2 0.4-0.1 1.2 0.6 0.7l0.8-0.7c0.5 1.2 1.3 0.7 1.7 0.5 4.4-2.8 8.8-6.1 13-9.4l-0.1 1.3 0.5-1.6c0.5 0.5 0.9 0.1 1.1-0.2 0.6-1 1.4-2 2.7-2.9-1.6 4.3-3.5 7.7-5.9 10.5l-1 1.2c0 0.7-0.2 1.6-1 1.7-0.4 0.1-1.2-0.2-1.8 0.4-0.3 0.4 0.7 1.2-0.1 0.6-0.7-0.5-1.4 0-2.2 0.2-0.6 0.2 0.4 0.8 0.6 1.2 0.2 0.4 0.4 0.8 0.3 1.3l-1.1-1.2c-1.3 0.7-2.1 2-3.2 3-0.5 0.4-0.3 1.1-0.3 1.7-0.7 0-1.5-0.2-1.9 0.2-0.3 0.4-0.2 1-0.2 1.6-1-0.1-1.1-1.6-2-1.3-0.9 0.2-1.9 0.3-2.7 0.8 0.6 1.2-1 0.5-0.8 0.7-1.5-0.9-2.8-1.6-4.4-1-3.4-1.1-7.6-0.6-10.7-0.2 0-0.5 0.1-1-0.1-1.1-0.2 0.5-0.8 0.3-0.7 0.3-1.9-1.3-3.8-2.1-5.8-3.2-1.8 0.2-3.5-0.7-4-1.2-1.4-1.3-3-0.6-4.3-0.9-2.8-0.7-3.8-3.6-4.1-5.6-0.2-1-1-1.4-1.3-1.3-1.3-4.2-3.3-8-4.9-11.9-0.4-1-0.3-2-0.3-3.1 0.5 0.2 1 0.1 0.9-0.6-0.5-3.3-1.7-5.8-3-8.2 0.7-3.4 0.8-7.4 2.4-10.4 1.4-2.7 4-4.1 5.8-6.4 0.6-0.8 0.6-1.9 1.2-2.6 2-2 4-4.1 6.2-5.9 1-0.8 2.2 0 3.7-0.3 0.5-1.8 2.5-3.4 4.4-2.9 0.8 0.2 2.4-1.9 2.9-2.1 0.8-0.3 0.4 0.8 0.4 1.5 1.9-1.5 4.5-2.3 6.9-3.2" fill="#d5cfd8" fill-rule="nonzero" stroke="none" stroke-width="1" stroke-linecap="butt" stroke-linejoin="miter" stroke-miterlimit="10" stroke-dasharray="" stroke-dashoffset="0" font-family="none" font-weight="none" font-size="none" text-anchor="none" style="mix-blend-mode: normal" data-fill-palette-color="tertiary"></path></g><g transform="matrix(1,0,0,1,64,105.663234875)"><svg viewBox="0 0 192 148.67353025" height="148.67353025" width="192"><g><svg viewBox="0 0 192 148.67353025" height="148.67353025" width="192"><g><svg viewBox="0 0 192 148.67353025" height="148.67353025" width="192"><g transform="matrix(1,0,0,1,0,89.86103025)"><svg viewBox="0 0 192 58.81249999999999" height="58.81249999999999" width="192"><g id="textblocktransform"><svg viewBox="0 0 192 58.81249999999999" height="58.81249999999999" width="192" id="textblock"><g><svg viewBox="0 0 192 58.81249999999999" height="58.81249999999999" width="192"><g transform="matrix(1,0,0,1,0,0)"><svg width="192" viewBox="1.5 -35.05 153.59 47.05" height="58.81249999999999" data-palette-color="#d5cfd8"><path d="M11.85 0.9L11.85 0.9Q9.1 0.9 6.25 0.23 3.4-0.45 1.5-1.55L1.5-1.55 1.75-8.35 2.25-8.35 3.8-5.1Q4.5-3.7 5.3-2.63 6.1-1.55 7.5-0.95L7.5-0.95Q8.5-0.45 9.43-0.28 10.35-0.1 11.5-0.1L11.5-0.1Q14.55-0.1 16.32-1.75 18.1-3.4 18.1-6L18.1-6Q18.1-8.45 16.9-9.83 15.7-11.2 13.05-12.5L13.05-12.5 11-13.4Q6.7-15.3 4.28-17.78 1.85-20.25 1.85-24.35L1.85-24.35Q1.85-27.3 3.38-29.45 4.9-31.6 7.63-32.75 10.35-33.9 14-33.9L14-33.9Q16.65-33.9 19.03-33.2 21.4-32.5 23.15-31.3L23.15-31.3 22.85-25.3 22.35-25.3 20.3-29.05Q19.45-30.8 18.6-31.53 17.75-32.25 16.65-32.55L16.65-32.55Q16-32.75 15.45-32.83 14.9-32.9 14.05-32.9L14.05-32.9Q11.5-32.9 9.75-31.43 8-29.95 8-27.45L8-27.45Q8-24.9 9.35-23.38 10.7-21.85 13.3-20.65L13.3-20.65 15.6-19.65Q20.4-17.55 22.5-15.18 24.6-12.8 24.6-9.05L24.6-9.05Q24.6-4.65 21.28-1.88 17.95 0.9 11.85 0.9ZM38.9 0L27.2 0 27.2-0.5 27.8-0.7Q29.6-1.3 29.6-3.2L29.6-3.2 29.6-29.9Q29.6-30.95 29.25-31.45 28.9-31.95 27.9-32.2L27.9-32.2 27.15-32.4 27.15-32.9 35.95-35.05 36.75-34.6 36.55-27.55 36.55-21.3Q38.3-22.75 40.32-23.78 42.35-24.8 44.8-24.8L44.8-24.8Q48.05-24.8 49.97-22.95 51.9-21.1 51.9-17.25L51.9-17.25 51.9-3.15Q51.9-2.15 52.3-1.55 52.7-0.95 53.7-0.65L53.7-0.65 54.1-0.5 54.1 0 42.4 0 42.4-0.5 43-0.65Q44.8-1.25 44.8-3.2L44.8-3.2 44.8-18.9Q44.8-20.9 44.12-21.65 43.45-22.4 41.75-22.4L41.75-22.4Q40.65-22.4 39.35-21.98 38.05-21.55 36.7-20.5L36.7-20.5 36.7-3.1Q36.7-1.15 38.5-0.6L38.5-0.6 38.9-0.5 38.9 0ZM69 0L56.05 0 56.05-0.5 56.8-0.7Q57.8-1 58.17-1.6 58.55-2.2 58.55-3.15L58.55-3.15 58.55-18.8Q58.55-19.9 58.17-20.43 57.8-20.95 56.8-21.15L56.8-21.15 56.05-21.35 56.05-21.85 64.65-24.75 65.15-24.25 65.59-19.95 65.59-19.55Q66.3-20.95 67.42-22.13 68.55-23.3 69.92-24.05 71.3-24.8 72.65-24.8L72.65-24.8Q74.55-24.8 75.55-23.75 76.55-22.7 76.55-21.1L76.55-21.1Q76.55-19.4 75.57-18.48 74.59-17.55 73.25-17.55L73.25-17.55Q71.15-17.55 69.55-19.65L69.55-19.65 69.45-19.75Q68.95-20.45 68.3-20.53 67.65-20.6 67.09-19.9L67.09-19.9Q66.59-19.45 66.27-18.82 65.95-18.2 65.65-17.4L65.65-17.4 65.65-3.45Q65.65-1.45 67.4-0.95L67.4-0.95 69-0.5 69 0ZM90.64-24.8L90.64-24.8Q93.89-24.8 96.19-23.48 98.49-22.15 99.72-19.88 100.94-17.6 100.94-14.7L100.94-14.7Q100.94-14.15 100.89-13.58 100.84-13 100.69-12.55L100.69-12.55 85.79-12.55Q85.84-7.15 87.72-4.78 89.59-2.4 93.29-2.4L93.29-2.4Q95.79-2.4 97.34-3.2 98.89-4 100.24-5.55L100.24-5.55 100.74-5.1Q99.19-2.35 96.62-0.8 94.04 0.75 90.44 0.75L90.44 0.75Q86.89 0.75 84.14-0.78 81.39-2.3 79.84-5.15 78.29-8 78.29-11.95L78.29-11.95Q78.29-16.05 80.09-18.93 81.89-21.8 84.72-23.3 87.54-24.8 90.64-24.8ZM90.49-23.8L90.49-23.8Q89.04-23.8 88.02-22.93 86.99-22.05 86.42-19.83 85.84-17.6 85.79-13.55L85.79-13.55 94.34-13.55Q94.84-19 93.94-21.4 93.04-23.8 90.49-23.8ZM108.04 12L108.04 12Q106.04 12 104.86 11 103.69 10 103.69 8.45L103.69 8.45Q103.69 7.05 104.69 6.2 105.69 5.35 106.94 5.35L106.94 5.35Q108.19 5.35 109.04 5.88 109.89 6.4 110.54 7.4L110.54 7.4 110.89 7.8Q111.99 9.3 113.09 7.75L113.09 7.75Q113.54 7 114.11 5.78 114.69 4.55 115.44 2.5L115.44 2.5 105.74-20.7Q105.39-21.65 104.99-22.23 104.59-22.8 103.69-23.2L103.69-23.2 102.79-23.55 102.79-24.05 115.24-24.05 115.24-23.6 114.24-23.2Q113.14-22.85 113.11-22.08 113.09-21.3 113.49-20.15L113.49-20.15 118.69-6.65 123.64-20.3Q124.04-21.45 123.94-22.23 123.84-23 122.69-23.3L122.69-23.3 121.64-23.55 121.64-24.05 128.59-24.05 128.59-23.55 127.49-23.2Q126.34-22.85 125.89-22.2 125.44-21.55 125.04-20.4L125.04-20.4 116.99 1.55Q115.04 6.8 113.09 9.4 111.14 12 108.04 12ZM137.54 0.75L137.54 0.75Q134.64 0.75 132.66-0.9 130.69-2.55 130.69-5.65L130.69-5.65Q130.69-8 133.09-9.98 135.49-11.95 140.64-12.95L140.64-12.95Q141.44-13.1 142.44-13.28 143.44-13.45 144.54-13.65L144.54-13.65 144.54-17.6Q144.54-21 143.71-22.38 142.89-23.75 141.14-23.75L141.14-23.75Q139.94-23.75 139.24-22.98 138.54-22.2 138.34-20.3L138.34-20.3 138.24-19.75Q138.14-17.6 137.19-16.6 136.24-15.6 134.84-15.6L134.84-15.6Q133.54-15.6 132.69-16.4 131.84-17.2 131.84-18.55L131.84-18.55Q131.84-20.6 133.26-22 134.69-23.4 137.04-24.1 139.39-24.8 142.14-24.8L142.14-24.8Q146.59-24.8 149.01-22.63 151.44-20.45 151.44-15.55L151.44-15.55 151.44-4.5Q151.44-2.25 153.54-2.25L153.54-2.25 154.64-2.25 155.09-1.85Q154.14-0.65 153.01 0 151.89 0.65 149.84 0.65L149.84 0.65Q147.64 0.65 146.36-0.38 145.09-1.4 144.69-3.1L144.69-3.1Q143.19-1.5 141.61-0.38 140.04 0.75 137.54 0.75ZM140.59-2.3L140.59-2.3Q141.59-2.3 142.46-2.78 143.34-3.25 144.54-4.25L144.54-4.25 144.54-12.65Q144.04-12.55 143.54-12.45 143.04-12.35 142.39-12.25L142.39-12.25Q140.09-11.65 138.71-10.23 137.34-8.8 137.34-6.4L137.34-6.4Q137.34-4.35 138.29-3.33 139.24-2.3 140.59-2.3Z" opacity="1" transform="matrix(1,0,0,1,0,0)" fill="#d5cfd8" class="wordmark-text-0" data-fill-palette-color="primary" id="text-0"></path></svg></g></svg></g></svg></g></svg></g><g transform="matrix(1,0,0,1,55.3605625,0)"><svg viewBox="0 0 81.278875 81.278875" height="81.278875" width="81.278875"><g><svg xmlns="http://www.w3.org/2000/svg" xmlns:xlink="http://www.w3.org/1999/xlink" version="1.1" x="0" y="0" viewBox="5 5 90 90" enable-background="new 0 0 100 100" xml:space="preserve" height="81.278875" width="81.278875" class="icon-icon-0" data-fill-palette-color="accent" id="icon-0"><g fill="#e8e8e8" data-fill-palette-color="accent"><g fill="#e8e8e8" data-fill-palette-color="accent"><path fill="#e8e8e8" d="M57.691 21.364v-0.545c0-4.2-3.436-7.636-7.691-7.636-4.2 0-7.636 3.436-7.636 7.636v0.545H57.691zM86.818 79.509V36.855c0-4.036-3.273-7.309-7.255-7.309H61.782 38.273 20.491c-4.036 0-7.255 3.273-7.309 7.309v42.655c0.055 4.036 3.273 7.309 7.309 7.309h59.073C83.545 86.818 86.818 83.545 86.818 79.509zM95 36.855v42.655C95 88.073 88.073 95 79.564 95H20.491C11.982 95 5.055 88.073 5 79.509V36.855c0.055-8.564 6.982-15.491 15.491-15.491h13.691v-0.545C34.182 12.091 41.273 5 50 5c8.782 0 15.873 7.091 15.873 15.818v0.545h13.691C88.073 21.364 95 28.291 95 36.855z" data-fill-palette-color="accent"></path></g></g></svg></g></svg></g><g></g></svg></g></svg></g></svg></g></svg></g><defs></defs></svg><rect width="320" height="360" fill="none" stroke="none" visibility="hidden"></rect></g></svg></g></svg>